<?xml version="1.0" encoding="UTF-8"?>
<svg version="1.1" xmlns="http://www.w3.org/2000/svg" width="500" height="500">
<path d="M0 0 C165 0 330 0 500 0 C500 165 500 330 500 500 C335 500 170 500 0 500 C0 335 0 170 0 0 Z " fill="#FEFEFE" transform="translate(0,0)"/>
<path d="M0 0 C3.25524077 1.68356151 6.10499742 3.76344725 9 6 C9.74765625 6.56074219 10.4953125 7.12148437 11.265625 7.69921875 C11.83796875 8.12847656 12.4103125 8.55773437 13 9 C13.67095703 8.27683594 13.67095703 8.27683594 14.35546875 7.5390625 C18.82957125 2.86462705 21.77042829 0.42654721 28.3125 -0.4375 C34.09766285 0.24887525 38.10142988 2.92343893 42 7.1875 C43.52804282 11.48512042 43.66399748 15.49636495 43 20 C41.1875 23.4375 41.1875 23.4375 39 26 C38.33484375 26.81597656 38.33484375 26.81597656 37.65625 27.6484375 C35.44994409 29.44886638 34.11931831 29.30953558 31.3125 29.1875 C30.50425781 29.16042969 29.69601563 29.13335937 28.86328125 29.10546875 C28.24839844 29.07066406 27.63351563 29.03585937 27 29 C26.505 27.02 26.505 27.02 26 25 C25.34 25 24.68 25 24 25 C21.94839633 29.74433349 21.97234026 33.10877501 22.5 38.1875 C22.5928125 39.08855469 22.685625 39.98960937 22.78125 40.91796875 C22.88953125 41.94857422 22.88953125 41.94857422 23 43 C23.9590625 41.5459375 23.9590625 41.5459375 24.9375 40.0625 C27 37 27 37 28 36 C30.9375 35.75 30.9375 35.75 34 36 C36.56616632 39.84924948 36.55097676 42.4349304 37 47 C37.7425 46.649375 38.485 46.29875 39.25 45.9375 C42.19167576 44.93465599 43.17803942 44.87121577 46 46 C47.485 46.99 47.485 46.99 49 48 C49.99 48 50.98 48 52 48 C52.680625 46.576875 52.680625 46.576875 53.375 45.125 C55 42 55 42 57 40 C59.5 40.1875 59.5 40.1875 62 41 C62.66 41.99 63.32 42.98 64 44 C64.66 43.67 65.32 43.34 66 43 C67.99960012 42.960008 70.00047242 42.95653201 72 43 C72.20496094 42.38511719 72.40992188 41.77023437 72.62109375 41.13671875 C73.74739583 37.7578125 74.87369792 34.37890625 76 31 C77.98 31.495 77.98 31.495 80 32 C80 36.29 80 40.58 80 45 C81.65 45 83.3 45 85 45 C83.68 45.33 82.36 45.66 81 46 C81.30893932 47.6256807 81.6222695 49.25052748 81.9375 50.875 C82.19853516 52.23238281 82.19853516 52.23238281 82.46484375 53.6171875 C82.89963701 55.99956317 82.89963701 55.99956317 84 58 C86.85288164 52.26769829 88.53444296 47.40140935 89 41 C90.32 41 91.64 41 93 41 C93.33 41.99 93.66 42.98 94 44 C94.99 43.01 94.99 43.01 96 42 C99.78903708 42.25260247 101.54186593 44.27849443 104 47 C104.33 45.02 104.66 43.04 105 41 C105.99 41 106.98 41 108 41 C108.495 42.98 108.495 42.98 109 45 C109.4125 44.484375 109.825 43.96875 110.25 43.4375 C110.8275 42.963125 111.405 42.48875 112 42 C114.1875 42.3125 114.1875 42.3125 116 43 C116.33 44.65 116.66 46.3 117 48 C117.721875 47.484375 118.44375 46.96875 119.1875 46.4375 C123.48450511 44.24125295 125.882126 45.64143664 130.3125 47.0625 C131.199375 47.371875 132.08625 47.68125 133 48 C133 46.35 133 44.7 133 43 C133.99 43 134.98 43 136 43 C136 47.62 136 52.24 136 57 C139.66267926 53.33732074 140.11584177 51.85204887 140.5625 46.875 C140.64628906 45.96492188 140.73007813 45.05484375 140.81640625 44.1171875 C140.87699219 43.41851562 140.93757812 42.71984375 141 42 C142.32 42 143.64 42 145 42 C145.33 43.32 145.66 44.64 146 46 C146.598125 45.34 147.19625 44.68 147.8125 44 C150 42 150 42 153 42 C154.50156874 45.00313748 154.09281204 47.79067522 154.0625 51.125 C154.05347656 52.40632813 154.04445313 53.68765625 154.03515625 55.0078125 C154.01775391 56.48894531 154.01775391 56.48894531 154 58 C158.05714884 54.11924893 158.20544536 51.48585868 158.5625 45.875 C158.64628906 44.59367187 158.73007812 43.31234375 158.81640625 41.9921875 C158.87699219 41.00476563 158.93757812 40.01734375 159 39 C158.01 39 157.02 39 156 39 C156 38.34 156 37.68 156 37 C157.32 37 158.64 37 160 37 C160.33 35.68 160.66 34.36 161 33 C161.99 33 162.98 33 164 33 C164 34.32 164 35.64 164 37 C167.3 37 170.6 37 174 37 C174 37.33 174 37.66 174 38 C170.7 38 167.4 38 164 38 C164 44.93 164 51.86 164 59 C164.66 59 165.32 59 166 59 C167.54863345 54.718484 168.48152364 50.62933451 169.125 46.125 C169.37636719 44.39636719 169.37636719 44.39636719 169.6328125 42.6328125 C169.75398437 41.76398438 169.87515625 40.89515625 170 40 C170.99 40 171.98 40 173 40 C173.33 40.99 173.66 41.98 174 43 C174.33 42.67 174.66 42.34 175 42 C177.5 41.875 177.5 41.875 180 42 C181 43 181 43 181.0625 46.0625 C181.041875 47.031875 181.02125 48.00125 181 49 C181.66 49 182.32 49 183 49 C183.33 48.01 183.66 47.02 184 46 C187.875 46.875 187.875 46.875 189 48 C189.14115161 50.67058851 189.04247107 53.32432238 189 56 C193.08981251 52.86447708 193.71783977 49.87612713 194.5078125 45.0234375 C195 43 195 43 197 41 C199.625 40.875 199.625 40.875 202 41 C202.75 43.25 202.75 43.25 203 46 C202.0409375 46.928125 202.0409375 46.928125 201.0625 47.875 C198.59656753 49.95702004 198.59656753 49.95702004 198.75 53.75 C198.8325 54.8225 198.915 55.895 199 57 C203.49256501 53.77931818 203.49256501 53.77931818 205.31640625 48.8359375 C205.43822266 47.61777344 205.43822266 47.61777344 205.5625 46.375 C205.64628906 45.55773437 205.73007812 44.74046875 205.81640625 43.8984375 C205.87699219 43.27195312 205.93757812 42.64546875 206 42 C207.32 42 208.64 42 210 42 C210.33 43.32 210.66 44.64 211 46 C211.598125 45.34 212.19625 44.68 212.8125 44 C215 42 215 42 218 42 C219.50156874 45.00313748 219.09281204 47.79067522 219.0625 51.125 C219.05347656 52.40632813 219.04445313 53.68765625 219.03515625 55.0078125 C219.01775391 56.48894531 219.01775391 56.48894531 219 58 C223.05714884 54.11924893 223.20544536 51.48585868 223.5625 45.875 C223.64628906 44.59367187 223.73007812 43.31234375 223.81640625 41.9921875 C223.87699219 41.00476563 223.93757812 40.01734375 224 39 C223.01 39 222.02 39 221 39 C221 38.34 221 37.68 221 37 C222.32 37 223.64 37 225 37 C225.33 35.68 225.66 34.36 226 33 C226.99 33 227.98 33 229 33 C229 34.32 229 35.64 229 37 C232.3 37 235.6 37 239 37 C239 37.33 239 37.66 239 38 C235.7 38 232.4 38 229 38 C229 44.93 229 51.86 229 59 C229.66 59 230.32 59 231 59 C232.32 56.03 233.64 53.06 235 50 C236.40253926 54.20761779 234.90602531 56.11735584 233 60 C232.01 60.99 232.01 60.99 231 62 C228.5 61.9375 228.5 61.9375 226 61 C224.6875 58.4375 224.6875 58.4375 224 56 C223.01 57.32 222.02 58.64 221 60 C219.0625 59.625 219.0625 59.625 217 59 C215.64908472 56.29816945 215.66141942 53.88191794 215.4375 50.875 C215.35371094 49.77929688 215.26992188 48.68359375 215.18359375 47.5546875 C215.12300781 46.71164062 215.06242188 45.86859375 215 45 C212.88819736 48.25738326 211.55194483 51.00151511 210.8125 54.8125 C210.65394531 55.60269531 210.49539063 56.39289063 210.33203125 57.20703125 C210.22246094 57.79871094 210.11289062 58.39039063 210 59 C208.68 59.33 207.36 59.66 206 60 C205.67 58.35 205.34 56.7 205 55 C204.4225 55.680625 203.845 56.36125 203.25 57.0625 C201 59 201 59 199 58.875 C197 58 197 58 195 56.8125 C192.96255418 55.71815699 192.96255418 55.71815699 190.75 56.875 C190.1725 57.24625 189.595 57.6175 189 58 C186.49701566 55.06171403 185.53069061 52.82097239 185 49 C184.01 51.97 183.02 54.94 182 58 C181.01 58 180.02 58 179 58 C178.95101562 57.00097656 178.90203125 56.00195312 178.8515625 54.97265625 C178.73941406 53.03712891 178.73941406 53.03712891 178.625 51.0625 C178.52058594 49.13083984 178.52058594 49.13083984 178.4140625 47.16015625 C178.27742187 46.11730469 178.14078125 45.07445312 178 44 C177.34 43.67 176.68 43.34 176 43 C174.7944567 46.85773856 173.95192901 50.21141988 173.75 54.25 C173 58 173 58 170.25 59.9375 C167.48682895 60.84084438 164.8732669 61.57746075 162 62 C161.01 60.02 160.02 58.04 159 56 C158.01 57.32 157.02 58.64 156 60 C154.0625 59.625 154.0625 59.625 152 59 C150.64908472 56.29816945 150.66141942 53.88191794 150.4375 50.875 C150.35371094 49.77929688 150.26992187 48.68359375 150.18359375 47.5546875 C150.12300781 46.71164062 150.06242188 45.86859375 150 45 C147.88819736 48.25738326 146.55194483 51.00151511 145.8125 54.8125 C145.65394531 55.60269531 145.49539062 56.39289063 145.33203125 57.20703125 C145.22246094 57.79871094 145.11289063 58.39039063 145 59 C143.68 59.33 142.36 59.66 141 60 C140.67 59.01 140.34 58.02 140 57 C139.01 57.99 139.01 57.99 138 59 C136 58.875 136 58.875 134 58 C131.97244814 55.06004981 132 53.72295997 132 50 C130.68 50 129.36 50 128 50 C127.855625 51.299375 127.71125 52.59875 127.5625 53.9375 C127.125 57.875 127.125 57.875 126 59 C123.5625 59.1875 123.5625 59.1875 121 59 C119 57 119 57 118.8046875 55.0546875 C118.86979167 53.03645833 118.93489583 51.01822917 119 49 C116.24282298 50.37858851 115.53678254 52.37466315 114 55 C113.01 55.99 113.01 55.99 112 57 C110.68 57 109.36 57 108 57 C108 60.3 108 63.6 108 67 C107.01 67 106.02 67 105 67 C103.40587716 63.81175432 103.89825265 60.37103338 103.9375 56.875 C103.94201172 56.12089844 103.94652344 55.36679687 103.95117188 54.58984375 C103.96296501 52.72652873 103.98090058 50.86325445 104 49 C102.10052681 50.82971853 100.64958016 52.50226844 99.125 54.6875 C98.42375 55.450625 97.7225 56.21375 97 57 C95.35 57 93.7 57 92 57 C92 60.3 92 63.6 92 67 C91.01 67 90.02 67 89 67 C88.01 63.04 88.01 63.04 87 59 C86.505 59.99 86.505 59.99 86 61 C83.6875 61.3125 83.6875 61.3125 81 61 C77.05839999 56.76642962 76.82043222 50.51137407 76 45 C74.515 45.495 74.515 45.495 73 46 C71.81747695 48.98635582 71.81747695 48.98635582 70.9375 52.5 C70.34684125 54.68235363 69.71235456 56.85428424 69 59 C68.01 59.495 68.01 59.495 67 60 C67.49658297 54.33895411 68.54510684 50.12325529 71 45 C70.39671875 45.11859375 69.7934375 45.2371875 69.171875 45.359375 C68.37265625 45.48828125 67.5734375 45.6171875 66.75 45.75 C65.96109375 45.88921875 65.1721875 46.0284375 64.359375 46.171875 C62 46 62 46 59.703125 44.015625 C59.14109375 43.35046875 58.5790625 42.6853125 58 42 C57.94597726 44.10388569 57.90719744 46.20816714 57.875 48.3125 C57.85179687 49.48425781 57.82859375 50.65601563 57.8046875 51.86328125 C57.74679382 55.16393661 57.74679382 55.16393661 60 58 C61.65 55.03 63.3 52.06 65 49 C65.66 49.33 66.32 49.66 67 50 C66.18957164 51.48030272 65.37659652 52.95921142 64.5625 54.4375 C64.11003906 55.26121094 63.65757812 56.08492188 63.19140625 56.93359375 C62 59 62 59 61 60 C58.625 60.375 58.625 60.375 56 60 C53.27491491 56.71110421 52.63853209 54.21712557 53 50 C51.35 50 49.7 50 48 50 C47.814375 51.670625 47.814375 51.670625 47.625 53.375 C47 57 47 57 45 59 C40.44444444 58.44444444 40.44444444 58.44444444 39 57 C38.85884839 54.32941149 38.95752893 51.67567762 39 49 C34.97847153 50.34050949 34.29726746 52.51929173 32 56 C28.91198244 58.98508364 26.22414881 59.51998309 22 60 C22 61.32 22 62.64 22 64 C21.34 64 20.68 64 20 64 C18.97228645 62.35027801 17.97733335 60.68005872 17 59 C10.03539261 50.43991853 1.89011996 42.83782285 -6.01416016 35.15722656 C-7.60743177 33.6064231 -9.19097203 32.04619347 -10.7734375 30.484375 C-11.70591309 29.57397461 -12.63838867 28.66357422 -13.59912109 27.72558594 C-17.61516205 23.16639525 -19.60448252 18.97722003 -19.3515625 12.953125 C-18.36540116 7.4744509 -14.32895064 4.07583335 -10 1 C-6.71138408 -0.64430796 -3.5398792 -0.65128953 0 0 Z " fill="#1B1B1B" transform="translate(104,237)"/>
<path d="M0 0 C3.95259541 1.90028625 7.23516999 4.19267943 10.25 7.375 C10.8275 7.91125 11.405 8.4475 12 9 C15.61944777 8.64874558 17.52067793 6.91617713 20.125 4.5 C24.9813171 0.02852312 24.9813171 0.02852312 27.953125 -0.0546875 C33.93571761 0.41333845 36.7982922 1.6932495 41 6 C42.87327147 9.74654294 42.52894169 13.92046121 42 18 C40.84140304 20.94584967 39.50217854 23.04068813 37 25 C33.375 25.75 33.375 25.75 30 25 C28.04421883 22.60259082 27 21.12413392 27 18 C26.34 18 25.68 18 25 18 C24.71125 18.9075 24.4225 19.815 24.125 20.75 C23.23468224 23.32202908 22.28505587 25.61346766 21 28 C20.01 28 19.02 28 18 28 C18 27.01 18 26.02 18 25 C17.01 25 16.02 25 15 25 C14.67 25.99 14.34 26.98 14 28 C13.34 28 12.68 28 12 28 C11.32845067 26.71086513 10.66291141 25.41859796 10 24.125 C9.62875 23.40570313 9.2575 22.68640625 8.875 21.9453125 C8 20 8 20 8 18 C7.34 18 6.68 18 6 18 C5.690625 18.969375 5.38125 19.93875 5.0625 20.9375 C4 24 4 24 3 25 C1.00041636 25.04080783 -1.00045254 25.04254356 -3 25 C-3 25.66 -3 26.32 -3 27 C0.43230448 26.73606499 0.43230448 26.73606499 4 26 C4.66 25.01 5.32 24.02 6 23 C6.66 23 7.32 23 8 23 C8.67154933 24.28913487 9.33708859 25.58140204 10 26.875 C10.37125 27.59429687 10.7425 28.31359375 11.125 29.0546875 C12 31 12 31 12 33 C13.65 31.68 15.3 30.36 17 29 C19.03607306 30.86334707 19.95193248 32.34017793 20.15380859 35.11132812 C20.07027135 37.66767032 19.90021581 40.20117517 19.6875 42.75 C19.62626953 43.63816406 19.56503906 44.52632813 19.50195312 45.44140625 C19.34905186 47.62907044 19.18127554 49.81453442 19 52 C16.18181884 50.71445082 14.1129766 49.3673966 11.91552734 47.19018555 C11.05476089 46.34371712 11.05476089 46.34371712 10.17660522 45.48014832 C9.2654747 44.56765068 9.2654747 44.56765068 8.3359375 43.63671875 C7.70265533 43.00772171 7.06937317 42.37872467 6.41690063 41.73066711 C5.08137704 40.40087799 3.74845505 39.06847162 2.41796875 37.73364258 C0.3840528 35.69656687 -1.66281497 33.67316997 -3.7109375 31.65039062 C-5.00862309 30.35497817 -6.30552473 29.05877982 -7.6015625 27.76171875 C-8.21303131 27.15945969 -8.82450012 26.55720062 -9.45449829 25.93669128 C-13.13135975 22.21947602 -15.68812194 19.1461383 -16.22265625 13.75390625 C-15.88192537 9.0917105 -15.16816207 6.61739533 -11.5625 3.5 C-7.58260136 0.50884445 -5.08529973 -0.5650333 0 0 Z " fill="#FCFDFB" transform="translate(103,239)"/>
<path d="M0 0 C3.25524077 1.68356151 6.10499742 3.76344725 9 6 C9.74765625 6.56074219 10.4953125 7.12148437 11.265625 7.69921875 C11.83796875 8.12847656 12.4103125 8.55773437 13 9 C13.67095703 8.27683594 13.67095703 8.27683594 14.35546875 7.5390625 C18.82957125 2.86462705 21.77042829 0.42654721 28.3125 -0.4375 C34.09766285 0.24887525 38.10142988 2.92343893 42 7.1875 C43.52804282 11.48512042 43.66399748 15.49636495 43 20 C41.1875 23.4375 41.1875 23.4375 39 26 C38.33484375 26.81597656 38.33484375 26.81597656 37.65625 27.6484375 C35.44994409 29.44886638 34.11931831 29.30953558 31.3125 29.1875 C30.50425781 29.16042969 29.69601563 29.13335937 28.86328125 29.10546875 C28.24839844 29.07066406 27.63351563 29.03585937 27 29 C26.505 27.02 26.505 27.02 26 25 C25.34 25 24.68 25 24 25 C21.94839633 29.74433349 21.97234026 33.10877501 22.5 38.1875 C22.5928125 39.08855469 22.685625 39.98960937 22.78125 40.91796875 C22.88953125 41.94857422 22.88953125 41.94857422 23 43 C23.9590625 41.5459375 23.9590625 41.5459375 24.9375 40.0625 C27 37 27 37 28 36 C29.99958364 35.95919217 32.00045254 35.95745644 34 36 C34 39.33018015 33.52103148 42.39848881 33 45.6875 C32.7215625 47.45673828 32.7215625 47.45673828 32.4375 49.26171875 C32.293125 50.16535156 32.14875 51.06898438 32 52 C32.66 52 33.32 52 34 52 C32.60186993 55.37881434 31.17112209 57.15017878 28 59 C24.75 59.6875 24.75 59.6875 22 60 C22 61.32 22 62.64 22 64 C21.34 64 20.68 64 20 64 C18.97228645 62.35027801 17.97733335 60.68005872 17 59 C10.03539261 50.43991853 1.89011996 42.83782285 -6.01416016 35.15722656 C-7.60743177 33.6064231 -9.19097203 32.04619347 -10.7734375 30.484375 C-11.70591309 29.57397461 -12.63838867 28.66357422 -13.59912109 27.72558594 C-17.61516205 23.16639525 -19.60448252 18.97722003 -19.3515625 12.953125 C-18.36540116 7.4744509 -14.32895064 4.07583335 -10 1 C-6.71138408 -0.64430796 -3.5398792 -0.65128953 0 0 Z M-16 9 C-16.68609733 11.05943617 -16.68609733 11.05943617 -16.875 13.3125 C-16.97554688 14.05113281 -17.07609375 14.78976563 -17.1796875 15.55078125 C-16.68440138 22.30174635 -11.75711155 26.67210521 -7.21484375 31.1484375 C-6.55795059 31.80582916 -5.90105743 32.46322083 -5.22425842 33.14053345 C-3.84182151 34.52063948 -2.45571384 35.89707727 -1.06616211 37.27001953 C1.06775158 39.38019315 3.18788129 41.50352809 5.30664062 43.62890625 C6.65285311 44.96954649 7.99983165 46.30941802 9.34765625 47.6484375 C9.98413589 48.28582855 10.62061554 48.9232196 11.27638245 49.57992554 C14.1175301 52.85386997 14.1175301 52.85386997 18 54 C18.28466242 50.91884257 18.52158834 47.83579677 18.75 44.75 C18.83121094 43.87730469 18.91242188 43.00460937 18.99609375 42.10546875 C19.45717391 36.87126094 19.45717391 36.87126094 17.015625 32.390625 C16.35046875 31.93171875 15.6853125 31.4728125 15 31 C13.68 32.32 12.36 33.64 11 35 C10.71125 34.0925 10.4225 33.185 10.125 32.25 C9.23468224 29.67797092 8.28505587 27.38653234 7 25 C6.34 25 5.68 25 5 25 C4.34 25.99 3.68 26.98 3 28 C-0.625 28.6875 -0.625 28.6875 -4 29 C-4 28.34 -4 27.68 -4 27 C-3.071875 27.103125 -2.14375 27.20625 -1.1875 27.3125 C0.3903125 27.1578125 0.3903125 27.1578125 2 27 C3.88599343 24.61107499 5 23.08148442 5 20 C5.66 20 6.32 20 7 20 C7.28875 20.9075 7.5775 21.815 7.875 22.75 C8.76531776 25.32202908 9.71494413 27.61346766 11 30 C11.99 29.67 12.98 29.34 14 29 C14 28.34 14 27.68 14 27 C14.99 27 15.98 27 17 27 C17 27.99 17 28.98 17 30 C17.99 30 18.98 30 20 30 C20.67154933 28.71086513 21.33708859 27.41859796 22 26.125 C22.37125 25.40570313 22.7425 24.68640625 23.125 23.9453125 C24.13673746 22.05151023 24.13673746 22.05151023 24 20 C24.66 20 25.32 20 26 20 C26.309375 20.969375 26.61875 21.93875 26.9375 22.9375 C27.69523342 25.84065792 27.69523342 25.84065792 29 27 C32.3299671 27.66830771 32.3299671 27.66830771 36 27 C39.24938828 24.50047055 40.70964053 21.49901028 41.48046875 17.51953125 C41.72146033 13.21424925 41.49387855 9.98153595 38.8125 6.5 C35.18840867 3.27858549 32.82294798 2.23271676 28.0625 1.625 C22.86629038 2.26127057 19.86657998 5.07152145 16.375 8.8125 C15.59125 9.534375 14.8075 10.25625 14 11 C10.66904545 10.68983014 8.89992795 9.29334211 6.5 7.0625 C3.23968281 4.0467066 0.59267841 2.20774066 -3.875 1.625 C-8.89574222 2.22748907 -12.77509461 5.1812735 -16 9 Z " fill="#9BC959" transform="translate(104,237)"/>
<path d="M0 0 C0.99 0 1.98 0 3 0 C3 1.32 3 2.64 3 4 C6.3 4 9.6 4 13 4 C13 4.33 13 4.66 13 5 C9.7 5 6.4 5 3 5 C3 11.93 3 18.86 3 26 C3.66 26 4.32 26 5 26 C6.54863345 21.718484 7.48152364 17.62933451 8.125 13.125 C8.37636719 11.39636719 8.37636719 11.39636719 8.6328125 9.6328125 C8.75398438 8.76398438 8.87515625 7.89515625 9 7 C9.99 7 10.98 7 12 7 C12.33 7.99 12.66 8.98 13 10 C13.33 9.67 13.66 9.34 14 9 C16.5 8.875 16.5 8.875 19 9 C20 10 20 10 20.0625 13.0625 C20.041875 14.031875 20.02125 15.00125 20 16 C20.66 16 21.32 16 22 16 C22.33 15.01 22.66 14.02 23 13 C26.875 13.875 26.875 13.875 28 15 C28.14115161 17.67058851 28.04247107 20.32432238 28 23 C32.08981251 19.86447708 32.71783977 16.87612713 33.5078125 12.0234375 C34 10 34 10 36 8 C38.625 7.875 38.625 7.875 41 8 C41.75 10.25 41.75 10.25 42 13 C41.0409375 13.928125 41.0409375 13.928125 40.0625 14.875 C37.59656753 16.95702004 37.59656753 16.95702004 37.75 20.75 C37.8325 21.8225 37.915 22.895 38 24 C42.49256501 20.77931818 42.49256501 20.77931818 44.31640625 15.8359375 C44.39761719 15.02382813 44.47882813 14.21171875 44.5625 13.375 C44.64628906 12.55773437 44.73007812 11.74046875 44.81640625 10.8984375 C44.90728516 9.95871094 44.90728516 9.95871094 45 9 C46.32 9 47.64 9 49 9 C49.495 10.98 49.495 10.98 50 13 C50.598125 12.34 51.19625 11.68 51.8125 11 C54 9 54 9 57 9 C58.50156874 12.00313748 58.09281204 14.79067522 58.0625 18.125 C58.05347656 19.40632813 58.04445313 20.68765625 58.03515625 22.0078125 C58.02355469 22.99523437 58.01195312 23.98265625 58 25 C62.05714884 21.11924893 62.20544536 18.48585868 62.5625 12.875 C62.68818359 10.95300781 62.68818359 10.95300781 62.81640625 8.9921875 C62.87699219 8.00476563 62.93757813 7.01734375 63 6 C62.01 6 61.02 6 60 6 C60 5.34 60 4.68 60 4 C61.32 4 62.64 4 64 4 C64.33 2.68 64.66 1.36 65 0 C65.99 0 66.98 0 68 0 C68 1.32 68 2.64 68 4 C71.3 4 74.6 4 78 4 C78 4.33 78 4.66 78 5 C74.7 5 71.4 5 68 5 C68 11.93 68 18.86 68 26 C68.66 26 69.32 26 70 26 C71.32 23.03 72.64 20.06 74 17 C75.40253926 21.20761779 73.90602531 23.11735584 72 27 C71.34 27.66 70.68 28.32 70 29 C67.5 28.9375 67.5 28.9375 65 28 C63.6875 25.4375 63.6875 25.4375 63 23 C62.01 24.32 61.02 25.64 60 27 C58.0625 26.625 58.0625 26.625 56 26 C54.64908472 23.29816945 54.66141942 20.88191794 54.4375 17.875 C54.35371094 16.77929688 54.26992188 15.68359375 54.18359375 14.5546875 C54.09271484 13.29011719 54.09271484 13.29011719 54 12 C51.88819736 15.25738326 50.55194483 18.00151511 49.8125 21.8125 C49.57466797 22.99779297 49.57466797 22.99779297 49.33203125 24.20703125 C49.22246094 24.79871094 49.11289062 25.39039063 49 26 C47.68 26.33 46.36 26.66 45 27 C44.67 25.35 44.34 23.7 44 22 C43.13375 23.0209375 43.13375 23.0209375 42.25 24.0625 C40 26 40 26 38 25.875 C36 25 36 25 34 23.8125 C31.96255418 22.71815699 31.96255418 22.71815699 29.75 23.875 C28.88375 24.431875 28.88375 24.431875 28 25 C25.49701566 22.06171403 24.53069061 19.82097239 24 16 C23.01 18.97 22.02 21.94 21 25 C20.01 25 19.02 25 18 25 C17.95101563 24.00097656 17.90203125 23.00195312 17.8515625 21.97265625 C17.77679688 20.68230469 17.70203125 19.39195312 17.625 18.0625 C17.55539062 16.77472656 17.48578125 15.48695313 17.4140625 14.16015625 C17.27742188 13.11730469 17.14078125 12.07445312 17 11 C16.34 10.67 15.68 10.34 15 10 C13.7944567 13.85773856 12.95192901 17.21141988 12.75 21.25 C12 25 12 25 9.25 26.9375 C6.48682895 27.84084438 3.8732669 28.57746075 1 29 C-2.21819111 21.22270481 -2.32098157 14.35740901 -2 6 C-2.99 6 -3.98 6 -5 6 C-5 5.34 -5 4.68 -5 4 C-3.68 4 -2.36 4 -1 4 C-0.67 2.68 -0.34 1.36 0 0 Z " fill="#1F1F1F" transform="translate(265,270)"/>
<path d="M0 0 C0.33 1.65 0.66 3.3 1 5 C2.0828125 4.2265625 2.0828125 4.2265625 3.1875 3.4375 C7.48450511 1.24125295 9.882126 2.64143664 14.3125 4.0625 C15.199375 4.371875 16.08625 4.68125 17 5 C17 3.35 17 1.7 17 0 C17.99 0 18.98 0 20 0 C20 4.62 20 9.24 20 14 C23.66267926 10.33732074 24.11584177 8.85204887 24.5625 3.875 C24.64628906 2.96492188 24.73007813 2.05484375 24.81640625 1.1171875 C24.90728516 0.06917969 24.90728516 0.06917969 25 -1 C26.32 -1 27.64 -1 29 -1 C29.495 0.98 29.495 0.98 30 3 C30.598125 2.34 31.19625 1.68 31.8125 1 C34 -1 34 -1 37 -1 C38.50156874 2.00313748 38.09281204 4.79067522 38.0625 8.125 C38.05347656 9.40632813 38.04445313 10.68765625 38.03515625 12.0078125 C38.02355469 12.99523437 38.01195312 13.98265625 38 15 C39.70840281 13.36587557 40.93453047 12.13093906 42 10 C42.66 10 43.32 10 44 10 C42.92598892 12.91517292 42.22189824 14.77810176 40 17 C37.9375 16.75 37.9375 16.75 36 16 C34.64908472 13.29816945 34.66141942 10.88191794 34.4375 7.875 C34.35371094 6.77929688 34.26992187 5.68359375 34.18359375 4.5546875 C34.12300781 3.71164062 34.06242187 2.86859375 34 2 C31.88819736 5.25738326 30.55194483 8.00151511 29.8125 11.8125 C29.57466797 12.99779297 29.57466797 12.99779297 29.33203125 14.20703125 C29.22246094 14.79871094 29.11289063 15.39039063 29 16 C27.68 16.33 26.36 16.66 25 17 C24.505 15.515 24.505 15.515 24 14 C23.34 14.66 22.68 15.32 22 16 C20 15.875 20 15.875 18 15 C15.97244814 12.06004981 16 10.72295997 16 7 C14.68 7 13.36 7 12 7 C11.855625 8.299375 11.71125 9.59875 11.5625 10.9375 C11.125 14.875 11.125 14.875 10 16 C7.5625 16.1875 7.5625 16.1875 5 16 C3 14 3 14 2.8046875 12.0546875 C2.86979167 10.03645833 2.93489583 8.01822917 3 6 C0.76747199 6.88990931 0.76747199 6.88990931 -0.4375 9.4375 C-2 12 -2 12 -5 14 C-5.99 13.34 -6.98 12.68 -8 12 C-7.67 11.01 -7.34 10.02 -7 9 C-7 8.67 -7 8.34 -7 8 C-6.89069174 6.66528861 -6.76296278 5.33205445 -6.625 4 C-6.55539063 3.278125 -6.48578125 2.55625 -6.4140625 1.8125 C-6.27742187 1.214375 -6.14078125 0.61625 -6 0 C-3.50907189 -1.24546405 -2.58919267 -0.7767578 0 0 Z " fill="#191919" transform="translate(220,280)"/>
<path d="M0 0 C0.66 0 1.32 0 2 0 C2.33 3.3 2.66 6.6 3 10 C3.9590625 8.5459375 3.9590625 8.5459375 4.9375 7.0625 C7 4 7 4 8 3 C9.99958364 2.95919217 12.00045254 2.95745644 14 3 C14 6.33018015 13.52103148 9.39848881 13 12.6875 C12.814375 13.86699219 12.62875 15.04648437 12.4375 16.26171875 C12.293125 17.16535156 12.14875 18.06898438 12 19 C12.66 19 13.32 19 14 19 C12.60186993 22.37881434 11.17112209 24.15017878 8 26 C4.75 26.6875 4.75 26.6875 2 27 C2 28.32 2 29.64 2 31 C1.34 31 0.68 31 0 31 C-4.06267623 25.37475598 -2.94132246 19.60059529 -2.625 13 C-2.5940625 12.19304687 -2.563125 11.38609375 -2.53125 10.5546875 C-2.49257812 9.77351563 -2.45390625 8.99234375 -2.4140625 8.1875 C-2.3826416 7.47980469 -2.3512207 6.77210938 -2.31884766 6.04296875 C-1.95669973 3.72256001 -1.14248475 2.03871965 0 0 Z " fill="#0E0F0E" transform="translate(124,270)"/>
<path d="M0 0 C2 2 2 2 2.3125 5 C2.209375 5.99 2.10625 6.98 2 8 C1.01 8.66 0.02 9.32 -1 10 C-2.16908086 13.06663678 -2.16908086 13.06663678 -3.0625 16.5625 C-3.65212382 18.72445401 -4.28616041 20.87582147 -5 23 C-5.99 23.495 -5.99 23.495 -7 24 C-6.50341703 18.33895411 -5.45489316 14.12325529 -3 9 C-3.60328125 9.11859375 -4.2065625 9.2371875 -4.828125 9.359375 C-5.62734375 9.48828125 -6.4265625 9.6171875 -7.25 9.75 C-8.43335938 9.95882813 -8.43335938 9.95882813 -9.640625 10.171875 C-12 10 -12 10 -14.296875 8.015625 C-14.85890625 7.35046875 -15.4209375 6.6853125 -16 6 C-16.05402274 8.10388569 -16.09280256 10.20816714 -16.125 12.3125 C-16.14820313 13.48425781 -16.17140625 14.65601563 -16.1953125 15.86328125 C-16.25320618 19.16393661 -16.25320618 19.16393661 -14 22 C-12.35 19.03 -10.7 16.06 -9 13 C-8.34 13.33 -7.68 13.66 -7 14 C-7.81042836 15.48030272 -8.62340348 16.95921142 -9.4375 18.4375 C-9.88996094 19.26121094 -10.34242188 20.08492188 -10.80859375 20.93359375 C-12 23 -12 23 -13 24 C-15.375 24.375 -15.375 24.375 -18 24 C-20.72508509 20.71110421 -21.36146791 18.21712557 -21 14 C-22.65 14 -24.3 14 -26 14 C-26.12375 15.11375 -26.2475 16.2275 -26.375 17.375 C-27 21 -27 21 -29 23 C-33.55555556 22.44444444 -33.55555556 22.44444444 -35 21 C-35.14115161 18.32941149 -35.04247107 15.67567762 -35 13 C-38.11785113 13.64644661 -38.11785113 13.64644661 -39 16 C-39.99 16 -40.98 16 -42 16 C-41.67 11.71 -41.34 7.42 -41 3 C-40.01 3 -39.02 3 -38 3 C-37.67 5.64 -37.34 8.28 -37 11 C-36.2575 10.649375 -35.515 10.29875 -34.75 9.9375 C-31.80832424 8.93465599 -30.82196058 8.87121577 -28 10 C-27.01 10.66 -26.02 11.32 -25 12 C-24.01 12 -23.02 12 -22 12 C-21.54625 11.05125 -21.0925 10.1025 -20.625 9.125 C-19 6 -19 6 -17 4 C-14.5 4.1875 -14.5 4.1875 -12 5 C-11.01 6.485 -11.01 6.485 -10 8 C-9.34 7.67 -8.68 7.34 -8 7 C-6.00039988 6.960008 -3.99952758 6.95653201 -2 7 C-1.34 4.69 -0.68 2.38 0 0 Z " fill="#212121" transform="translate(178,273)"/>
<path d="M0 0 C0.99 0 1.98 0 3 0 C3 1.32 3 2.64 3 4 C6.3 4 9.6 4 13 4 C13 4.33 13 4.66 13 5 C9.7 5 6.4 5 3 5 C3 11.93 3 18.86 3 26 C3.66 26 4.32 26 5 26 C6.54863345 21.718484 7.48152364 17.62933451 8.125 13.125 C8.37636719 11.39636719 8.37636719 11.39636719 8.6328125 9.6328125 C8.75398438 8.76398438 8.87515625 7.89515625 9 7 C9.99 7 10.98 7 12 7 C12.33 7.99 12.66 8.98 13 10 C13.33 9.67 13.66 9.34 14 9 C16.5 8.875 16.5 8.875 19 9 C20 10 20 10 20.0625 13.0625 C20.041875 14.031875 20.02125 15.00125 20 16 C20.99 15.67 21.98 15.34 23 15 C22.34 18.3 21.68 21.6 21 25 C20.01 25 19.02 25 18 25 C17.95101563 24.00097656 17.90203125 23.00195312 17.8515625 21.97265625 C17.77679688 20.68230469 17.70203125 19.39195312 17.625 18.0625 C17.55539062 16.77472656 17.48578125 15.48695313 17.4140625 14.16015625 C17.27742188 13.11730469 17.14078125 12.07445312 17 11 C16.34 10.67 15.68 10.34 15 10 C13.7944567 13.85773856 12.95192901 17.21141988 12.75 21.25 C12 25 12 25 9.25 26.9375 C6.48682895 27.84084438 3.8732669 28.57746075 1 29 C-2.21819111 21.22270481 -2.32098157 14.35740901 -2 6 C-2.99 6 -3.98 6 -5 6 C-5 5.34 -5 4.68 -5 4 C-3.68 4 -2.36 4 -1 4 C-0.67 2.68 -0.34 1.36 0 0 Z " fill="#1D1D1D" transform="translate(265,270)"/>
<path d="M0 0 C4.46506508 1.21774502 4.46506508 1.21774502 6.4375 3.9375 C6.37890625 6.13671875 6.37890625 6.13671875 6 8.625 C5.87247955 12.23807944 6.11929764 13.53848434 8.40625 16.40625 C12.98197812 20.35380875 12.98197812 20.35380875 18.58984375 22.27734375 C21.65247864 21.92122341 23.26497581 21.11002419 25.4375 18.9375 C25.83797444 16.61474823 26.1772104 14.28010643 26.4375 11.9375 C28.4375 13.3125 28.4375 13.3125 30.4375 14.9375 C30.4375 15.5975 30.4375 16.2575 30.4375 16.9375 C29.7775 16.9375 29.1175 16.9375 28.4375 16.9375 C28.169375 17.72125 27.90125 18.505 27.625 19.3125 C26.4375 21.9375 26.4375 21.9375 23.4375 23.9375 C19.94598624 24.76311065 16.92388479 24.80402878 13.4375 23.9375 C10.89228942 21.78160617 8.80533649 19.42934755 6.60546875 16.92578125 C4.64161576 14.78421863 4.64161576 14.78421863 2.23828125 14.48046875 C0.30321567 14.6128115 -1.62984172 14.7737154 -3.5625 14.9375 C-6.0625 13.375 -6.0625 13.375 -7.5625 10.9375 C-8.12895882 6.97228823 -8.13840314 4.85894502 -6 1.4375 C-3.5625 -0.0625 -3.5625 -0.0625 0 0 Z " fill="#98C855" transform="translate(93.5625,283.0625)"/>
<path d="M0 0 C0.99 0 1.98 0 3 0 C3 1.32 3 2.64 3 4 C6.3 4 9.6 4 13 4 C13 4.33 13 4.66 13 5 C9.7 5 6.4 5 3 5 C3 11.93 3 18.86 3 26 C3.66 26 4.32 26 5 26 C6.98 21.545 6.98 21.545 9 17 C10.40253926 21.20761779 8.90602531 23.11735584 7 27 C6.34 27.66 5.68 28.32 5 29 C2.375 28.625 2.375 28.625 0 28 C-2.3479743 20.66258031 -2.19355213 13.65606218 -2 6 C-2.99 6 -3.98 6 -5 6 C-5 5.34 -5 4.68 -5 4 C-3.68 4 -2.36 4 -1 4 C-0.67 2.68 -0.34 1.36 0 0 Z " fill="#171717" transform="translate(330,270)"/>
<path d="M0 0 C0.78375 0.04125 1.5675 0.0825 2.375 0.125 C3.125 2.375 3.125 2.375 3.375 5.125 C2.715 5.723125 2.055 6.32125 1.375 6.9375 C-0.8416403 8.88057559 -0.8416403 8.88057559 -0.671875 11.15234375 C-0.40427962 13.15578813 -0.02139707 15.14301463 0.375 17.125 C-0.2025 16.96 -0.78 16.795 -1.375 16.625 C-3.89164369 15.98037969 -3.89164369 15.98037969 -7.625 16.125 C-8.945 16.125 -10.265 16.125 -11.625 16.125 C-13.625 13.125 -13.625 13.125 -14.125 10.5625 C-14.42648247 7.95645436 -14.42648247 7.95645436 -16.625 6.125 C-14.75 5.5 -14.75 5.5 -12.625 5.125 C-10.625 7.125 -10.625 7.125 -10.4296875 9.0703125 C-10.49479167 11.08854167 -10.55989583 13.10677083 -10.625 15.125 C-6.53518749 11.98947708 -5.90716023 9.00112713 -5.1171875 4.1484375 C-4.32903255 0.90824494 -3.29765905 0.15703138 0 0 Z " fill="#0F0F0F" transform="translate(303.625,277.875)"/>
<path d="M0 0 C2.64 0 5.28 0 8 0 C7.566875 1.3921875 7.566875 1.3921875 7.125 2.8125 C5.92056163 6.96866058 5.23887019 11.17963193 4.5625 15.44921875 C4.01788201 17.91891005 3.23378218 19.80489588 2 22 C1.01 21.67 0.02 21.34 -1 21 C-1.02710123 18.4374282 -1.04688771 15.87514635 -1.0625 13.3125 C-1.07087891 12.59126953 -1.07925781 11.87003906 -1.08789062 11.12695312 C-1.10543632 7.28444618 -0.93524221 3.73360474 0 0 Z " fill="#EEEEEE" transform="translate(268,275)"/>
<path d="M0 0 C0.99 0 1.98 0 3 0 C3 1.32 3 2.64 3 4 C6.3 4 9.6 4 13 4 C13 4.33 13 4.66 13 5 C9.7 5 6.4 5 3 5 C3 12.59 3 20.18 3 28 C2.01 28 1.02 28 0 28 C-2.3479743 20.66258031 -2.19355213 13.65606218 -2 6 C-2.99 6 -3.98 6 -5 6 C-5 5.34 -5 4.68 -5 4 C-3.68 4 -2.36 4 -1 4 C-0.67 2.68 -0.34 1.36 0 0 Z " fill="#111111" transform="translate(265,270)"/>
<path d="M0 0 C3 1 3 1 4 3 C6.97 3 9.94 3 13 3 C12.34 5.31 11.68 7.62 11 10 C10.01 10 9.02 10 8 10 C7.67 9.34 7.34 8.68 7 8 C5.35 10.97 3.7 13.94 2 17 C0 16 0 16 -1 13 C-1.09357692 11.14772748 -1.12993909 9.2921282 -1.125 7.4375 C-1.12757813 6.46683594 -1.13015625 5.49617188 -1.1328125 4.49609375 C-1 2 -1 2 0 0 Z " fill="#F8F8F8" transform="translate(162,279)"/>
<path d="M0 0 C0.99 0 1.98 0 3 0 C3.33 1.32 3.66 2.64 4 4 C4.66 3.67 5.32 3.34 6 3 C5.67 4.98 5.34 6.96 5 9 C5.66 9.33 6.32 9.66 7 10 C6.01 10.66 5.02 11.32 4 12 C4 12.66 4 13.32 4 14 C4.66 14.66 5.32 15.32 6 16 C5.01 16 4.02 16 3 16 C3 19.3 3 22.6 3 26 C2.01 26 1.02 26 0 26 C-3.35139107 19.29721786 -1.01543677 7.234987 0 0 Z " fill="#090909" transform="translate(209,278)"/>
<path d="M0 0 C0.99 1.485 0.99 1.485 2 3 C2.66 2.34 3.32 1.68 4 1 C7.78903708 1.25260247 9.54186593 3.27849443 12 6 C12.33 5.34 12.66 4.68 13 4 C13 5.65 13 7.3 13 9 C12.01 9 11.02 9 10 9 C8.64721885 10.98689731 7.31431695 12.98745218 6 15 C5.01 15.33 4.02 15.66 3 16 C2.34 15.67 1.68 15.34 1 15 C0.875 8.375 0.875 8.375 2 5 C1.34 5 0.68 5 0 5 C0 3.35 0 1.7 0 0 Z " fill="#2C2C2C" transform="translate(196,278)"/>
<path d="M0 0 C0.99 0 1.98 0 3 0 C3 1.65 3 3.3 3 5 C3.66 5 4.32 5 5 5 C5.125 11.625 5.125 11.625 4 15 C4.66 15.33 5.32 15.66 6 16 C5.01 16 4.02 16 3 16 C3 19.3 3 22.6 3 26 C2.01 26 1.02 26 0 26 C-0.06058594 25.16855469 -0.12117187 24.33710938 -0.18359375 23.48046875 C-0.26738281 22.39378906 -0.35117188 21.30710937 -0.4375 20.1875 C-0.51871094 19.10855469 -0.59992188 18.02960938 -0.68359375 16.91796875 C-0.90212461 13.94010095 -0.90212461 13.94010095 -2 11 C-1.66015625 8.30078125 -1.66015625 8.30078125 -1.0625 5.3125 C-0.86785156 4.31863281 -0.67320312 3.32476562 -0.47265625 2.30078125 C-0.31667969 1.54152344 -0.16070312 0.78226562 0 0 Z " fill="#090909" transform="translate(193,278)"/>
<path d="M0 0 C0.66 0.33 1.32 0.66 2 1 C2.59355614 3.64860427 2.74209269 6.29197322 3 9 C5.31 8.34 7.62 7.68 10 7 C9.67 10.96 9.34 14.92 9 19 C11.35953094 16.64046906 11.49141413 15.22104383 12 12 C12.33 12 12.66 12 13 12 C13.125 15.375 13.125 15.375 13 19 C12.34 19.66 11.68 20.32 11 21 C6.44444444 20.44444444 6.44444444 20.44444444 5 19 C4.85884839 16.32941149 4.95752893 13.67567762 5 11 C1.88214887 11.64644661 1.88214887 11.64644661 1 14 C0.01 14 -0.98 14 -2 14 C-1.85970581 11.8537974 -1.71261836 9.70803782 -1.5625 7.5625 C-1.48128906 6.36753906 -1.40007812 5.17257812 -1.31640625 3.94140625 C-1 1 -1 1 0 0 Z " fill="#0E0E0E" transform="translate(138,275)"/>
<path d="M0 0 C0.66 0 1.32 0 2 0 C3.82089479 3.64178957 3.05121113 8.00553148 3 12 C-1.95 13.485 -1.95 13.485 -7 15 C-6.57352731 9.31369743 -4.06314998 4.06314998 0 0 Z " fill="#F2F2F2" transform="translate(134,274)"/>
<path d="M0 0 C0.33 1.65 0.66 3.3 1 5 C2.32 4.67 3.64 4.34 5 4 C4.34 5.32 3.68 6.64 3 8 C3 7.34 3 6.68 3 6 C0.76747199 6.88990931 0.76747199 6.88990931 -0.4375 9.4375 C-2 12 -2 12 -5 14 C-5.99 13.34 -6.98 12.68 -8 12 C-7.67 11.01 -7.34 10.02 -7 9 C-7 8.67 -7 8.34 -7 8 C-6.89069174 6.66528861 -6.76296278 5.33205445 -6.625 4 C-6.55539063 3.278125 -6.48578125 2.55625 -6.4140625 1.8125 C-6.27742187 1.214375 -6.14078125 0.61625 -6 0 C-3.50907189 -1.24546405 -2.58919267 -0.7767578 0 0 Z " fill="#535353" transform="translate(220,280)"/>
<path d="M0 0 C1.423125 0.4021875 1.423125 0.4021875 2.875 0.8125 C4.26931504 3.60113007 4.13160094 5.73328868 3.875 8.8125 C0.875 10.8125 0.875 10.8125 -1.6875 10.5625 C-4.125 9.8125 -4.125 9.8125 -6.125 7.8125 C-6.4883156 4.97863833 -6.4818671 3.40727849 -5 0.9375 C-3.125 -0.1875 -3.125 -0.1875 0 0 Z " fill="#F9FCF6" transform="translate(94.125,285.1875)"/>
<path d="M0 0 C1.50156874 3.00313748 1.09281204 5.79067522 1.0625 9.125 C1.05347656 10.40632813 1.04445313 11.68765625 1.03515625 13.0078125 C1.02355469 13.99523437 1.01195312 14.98265625 1 16 C2.70840281 14.36587557 3.93453047 13.13093906 5 11 C5.66 11 6.32 11 7 11 C5.92598892 13.91517292 5.22189824 15.77810176 3 18 C0.9375 17.75 0.9375 17.75 -1 17 C-2.35091528 14.29816945 -2.33858058 11.88191794 -2.5625 8.875 C-2.64628906 7.77929688 -2.73007812 6.68359375 -2.81640625 5.5546875 C-2.87699219 4.71164062 -2.93757813 3.86859375 -3 3 C-3.99 3.99 -4.98 4.98 -6 6 C-6.33 5.34 -6.66 4.68 -7 4 C-3.375 0 -3.375 0 0 0 Z " fill="#2A2A2A" transform="translate(322,279)"/>
<path d="M0 0 C1.50156874 3.00313748 1.09281204 5.79067522 1.0625 9.125 C1.05347656 10.40632813 1.04445313 11.68765625 1.03515625 13.0078125 C1.02355469 13.99523437 1.01195312 14.98265625 1 16 C2.70840281 14.36587557 3.93453047 13.13093906 5 11 C5.66 11 6.32 11 7 11 C5.92598892 13.91517292 5.22189824 15.77810176 3 18 C0.9375 17.75 0.9375 17.75 -1 17 C-2.35091528 14.29816945 -2.33858058 11.88191794 -2.5625 8.875 C-2.64628906 7.77929688 -2.73007813 6.68359375 -2.81640625 5.5546875 C-2.87699219 4.71164062 -2.93757812 3.86859375 -3 3 C-3.99 3.99 -4.98 4.98 -6 6 C-6.33 5.34 -6.66 4.68 -7 4 C-3.375 0 -3.375 0 0 0 Z " fill="#2A2A2A" transform="translate(257,279)"/>
<path d="M0 0 C0.66 0 1.32 0 2 0 C2.67154933 1.28913487 3.33708859 2.58140204 4 3.875 C4.37125 4.59429687 4.7425 5.31359375 5.125 6.0546875 C6 8 6 8 6 10 C6.433125 9.505 6.86625 9.01 7.3125 8.5 C9 7 9 7 12 7 C12 7.66 12 8.32 12 9 C8.77208445 11.1519437 7.71599191 11.20086443 4 11 C3.34 9.02 2.68 7.04 2 5 C1.34 5 0.68 5 0 5 C-0.66 6.32 -1.32 7.64 -2 9 C-4.31 9 -6.62 9 -9 9 C-9 8.34 -9 7.68 -9 7 C-8.071875 6.95875 -7.14375 6.9175 -6.1875 6.875 C-2.71052362 6.31140969 -2.71052362 6.31140969 -1.125 2.9375 C-0.75375 1.968125 -0.3825 0.99875 0 0 Z " fill="#9DCA5D" transform="translate(109,257)"/>
<path d="M0 0 C3.4375 0.9375 3.4375 0.9375 5.4375 2.1875 C6.4375 3.9375 6.4375 3.9375 6.125 6.625 C5.898125 7.388125 5.67125 8.15125 5.4375 8.9375 C3.4375 5.1875 3.4375 5.1875 3.4375 2.9375 C0.52097826 2.77068891 0.52097826 2.77068891 -2.5625 2.9375 C-4.79459395 4.75012847 -4.79459395 4.75012847 -4.8125 7.3125 C-4.55595272 10.00624642 -3.93020587 11.62949635 -2.5625 13.9375 C-0.9125 13.9375 0.7375 13.9375 2.4375 13.9375 C2.4375 14.2675 2.4375 14.5975 2.4375 14.9375 C-1.05894963 15.25535906 -2.959902 15.33394605 -5.9375 13.375 C-8.18590519 10.00239221 -8.13033945 7.91237617 -7.5625 3.9375 C-5.29401339 0.30792142 -4.30870043 -0.07559124 0 0 Z " fill="#9BC959" transform="translate(93.5625,283.0625)"/>
<path d="M0 0 C0.66 0.33 1.32 0.66 2 1 C1.67 4.63 1.34 8.26 1 12 C3.5654594 9.4345406 3.54046087 7.52313332 4 4 C4.99 5.485 4.99 5.485 6 7 C5.125 10.6875 5.125 10.6875 4 14 C1.625 14.125 1.625 14.125 -1 14 C-3 12 -3 12 -3.3125 9.25 C-2.9586728 5.57019712 -1.82157417 3.18775479 0 0 Z " fill="#141414" transform="translate(226,282)"/>
<path d="M0 0 C0.99 0 1.98 0 3 0 C3 1.98 3 3.96 3 6 C3.99 5.67 4.98 5.34 6 5 C5.34 8.3 4.68 11.6 4 15 C3.01 15 2.02 15 1 15 C0.67 10.05 0.34 5.1 0 0 Z " fill="#121212" transform="translate(282,280)"/>
<path d="M0 0 C0.33 0.99 0.66 1.98 1 3 C-4.625 8 -4.625 8 -8 8 C-8 6.35 -8 4.7 -8 3 C-5.36 2.01 -2.72 1.02 0 0 Z " fill="#E7E7E7" transform="translate(134,288)"/>
<path d="M0 0 C3.69230769 0.69230769 3.69230769 0.69230769 5 2 C5.14115161 4.67058851 5.04247107 7.32432238 5 10 C5.99 9.34 6.98 8.68 8 8 C8.99 8.33 9.98 8.66 11 9 C9.68 9.99 8.36 10.98 7 12 C5.125 11.4375 5.125 11.4375 3 10 C2.25740651 7.68970915 1.588562 5.354248 1 3 C0.34 2.34 -0.32 1.68 -1 1 C-0.67 0.67 -0.34 0.34 0 0 Z " fill="#303030" transform="translate(288,283)"/>
<path d="M0 0 C-0.99 1.98 -1.98 3.96 -3 6 C-4.32 5.01 -5.64 4.02 -7 3 C-7.99 4.485 -7.99 4.485 -9 6 C-9.66 6 -10.32 6 -11 6 C-11.33 4.68 -11.66 3.36 -12 2 C-7.8794254 0.00214565 -4.54805635 -0.17835515 0 0 Z " fill="#94C44F" transform="translate(126,266)"/>
<path d="M0 0 C0.33 0.99 0.66 1.98 1 3 C1.66 3 2.32 3 3 3 C1.61990379 6.33523252 0.15049348 8.18607951 -3 10 C-3.99 9.67 -4.98 9.34 -6 9 C-5.175 8.38125 -4.35 7.7625 -3.5 7.125 C-2.2625 6.073125 -2.2625 6.073125 -1 5 C-1 4.34 -1 3.68 -1 3 C-2.65 3.33 -4.3 3.66 -6 4 C-6.33 3.34 -6.66 2.68 -7 2 C-4.69 1.34 -2.38 0.68 0 0 Z " fill="#2F2F2F" transform="translate(135,286)"/>
<path d="M0 0 C1.98 0.495 1.98 0.495 4 1 C3.75 3.875 3.75 3.875 3 7 C1.02 7.99 1.02 7.99 -1 9 C-0.67 6.03 -0.34 3.06 0 0 Z " fill="#5E5E5E" transform="translate(303,278)"/>
<path d="M0 0 C0.66 0 1.32 0 2 0 C2.99 2.31 3.98 4.62 5 7 C4.01 7 3.02 7 2 7 C2 6.34 2 5.68 2 5 C1.34 5 0.68 5 0 5 C-0.33 6.32 -0.66 7.64 -1 9 C-1.99 8.67 -2.98 8.34 -4 8 C-2.68 5.36 -1.36 2.72 0 0 Z " fill="#9DCA5D" transform="translate(128,257)"/>
<path d="M0 0 C2.5 1 2.5 1 4 2 C3.67 2.99 3.34 3.98 3 5 C2.43796875 4.67257813 1.8759375 4.34515625 1.296875 4.0078125 C-1.26859964 2.88214506 -2.96842277 2.7931889 -5.75 2.875 C-6.94882813 2.90207031 -6.94882813 2.90207031 -8.171875 2.9296875 C-9.07679687 2.96449219 -9.07679687 2.96449219 -10 3 C-10 2.34 -10 1.68 -10 1 C-6.83013832 -0.58493084 -3.45967739 -0.2940042 0 0 Z " fill="#A2CD64" transform="translate(104,237)"/>
<path d="M0 0 C0.99 0.33 1.98 0.66 3 1 C3.36923077 6.53846154 3.36923077 6.53846154 1.5 8.875 C0.7575 9.431875 0.7575 9.431875 0 10 C-0.33 9.67 -0.66 9.34 -1 9 C-0.91062197 7.47480724 -0.75462854 5.95318071 -0.5625 4.4375 C-0.46066406 3.61121094 -0.35882813 2.78492188 -0.25390625 1.93359375 C-0.17011719 1.29550781 -0.08632812 0.65742188 0 0 Z " fill="#D7D7D7" transform="translate(227,285)"/>
<path d="M0 0 C2.97 0.99 5.94 1.98 9 3 C9 4.98 9 6.96 9 9 C8.67 7.68 8.34 6.36 8 5 C6.68 5 5.36 5 4 5 C3.67 5.66 3.34 6.32 3 7 C3 6.01 3 5.02 3 4 C1.68 3.67 0.36 3.34 -1 3 C-0.67 2.01 -0.34 1.02 0 0 Z " fill="#414141" transform="translate(228,282)"/>
<path d="M0 0 C0.66 0 1.32 0 2 0 C2.6875 3.3125 2.6875 3.3125 3 7 C1.5625 8.9375 1.5625 8.9375 0 10 C-0.33 9.67 -0.66 9.34 -1 9 C-0.91062197 7.47480724 -0.75462854 5.95318071 -0.5625 4.4375 C-0.46066406 3.61121094 -0.35882813 2.78492188 -0.25390625 1.93359375 C-0.17011719 1.29550781 -0.08632812 0.65742188 0 0 Z " fill="#DCDCDC" transform="translate(147,285)"/>
<path d="M0 0 C6.36 0.6 6.36 0.6 9 2.25 C10 4 10 4 9.6875 6.6875 C9.460625 7.450625 9.23375 8.21375 9 9 C7 5.25 7 5.25 7 3 C4.03 3 1.06 3 -2 3 C-1.34 2.01 -0.68 1.02 0 0 Z " fill="#A2CD66" transform="translate(90,283)"/>
<path d="M0 0 C3.69459731 0.19970796 4.78742451 0.76444338 7.3125 3.5625 C8.1478125 4.7690625 8.1478125 4.7690625 9 6 C5.31245243 5.50168276 3.39509338 4.89932357 1 2 C0.67 2.66 0.34 3.32 0 4 C-0.99 4.33 -1.98 4.66 -3 5 C-1.125 1.125 -1.125 1.125 0 0 Z " fill="#303030" transform="translate(161,277)"/>
<path d="M0 0 C1.65 0 3.3 0 5 0 C4.34 2.31 3.68 4.62 3 7 C2.01 7 1.02 7 0 7 C-1.125 2.25 -1.125 2.25 0 0 Z " fill="#F1F1F1" transform="translate(170,282)"/>
<path d="M0 0 C0.7425 0.495 1.485 0.99 2.25 1.5 C5.06318188 3.31923475 5.06318188 3.31923475 9 3 C9 3.66 9 4.32 9 5 C7.35 5 5.7 5 4 5 C3.67 6.32 3.34 7.64 3 9 C3 7.68 3 6.36 3 5 C2.34 5 1.68 5 1 5 C1 4.34 1 3.68 1 3 C0.34 3 -0.32 3 -1 3 C-0.67 2.01 -0.34 1.02 0 0 Z " fill="#2C2C2C" transform="translate(148,282)"/>
<path d="M0 0 C3.60156104 2.05803488 6.88992126 4.24535883 10 7 C10 7.66 10 8.32 10 9 C6.71245489 8.42110619 5.06327505 7.45171589 2.75 5.0625 C2.22921875 4.53785156 1.7084375 4.01320312 1.171875 3.47265625 C0 2 0 2 0 0 Z " fill="#99C856" transform="translate(108,240)"/>
<path d="M0 0 C0.33 0 0.66 0 1 0 C1 3.63 1 7.26 1 11 C-3.455 10.01 -3.455 10.01 -8 9 C-6.68 8.34 -5.36 7.68 -4 7 C-1.41272404 4.89184922 -0.56583839 3.28186266 0 0 Z " fill="#8FC346" transform="translate(99,288)"/>
<path d="M0 0 C0.99 0 1.98 0 3 0 C3 1.65 3 3.3 3 5 C1.35 5.33 -0.3 5.66 -2 6 C-1.125 1.125 -1.125 1.125 0 0 Z " fill="#DCDCDC" transform="translate(200,281)"/>
<path d="M0 0 C0.94875 0.04125 1.8975 0.0825 2.875 0.125 C2.875 1.115 2.875 2.105 2.875 3.125 C2.215 3.125 1.555 3.125 0.875 3.125 C0.875 2.465 0.875 1.805 0.875 1.125 C-2.095 3.6 -2.095 3.6 -5.125 6.125 C-5.125 1.30076797 -4.90244643 0.19609786 0 0 Z " fill="#2A2A2A" transform="translate(135.125,272.875)"/>
<path d="M0 0 C0.66 0 1.32 0 2 0 C2 1.65 2 3.3 2 5 C0.35 5.66 -1.3 6.32 -3 7 C-2.25 2.25 -2.25 2.25 0 0 Z " fill="#E5E5E5" transform="translate(216,281)"/>
<path d="M0 0 C2 2 2 2 2.125 5.125 C2.08375 6.07375 2.0425 7.0225 2 8 C0.68 7.67 -0.64 7.34 -2 7 C-1.34 4.69 -0.68 2.38 0 0 Z " fill="#707070" transform="translate(178,273)"/>
<path d="M0 0 C2 1.375 2 1.375 4 3 C4 3.66 4 4.32 4 5 C3.34 5 2.68 5 2 5 C1.67 5.99 1.34 6.98 1 8 C0.34 7.67 -0.32 7.34 -1 7 C-0.67 4.69 -0.34 2.38 0 0 Z " fill="#9CBF6B" transform="translate(120,295)"/>
<path d="M0 0 C0.33 0.99 0.66 1.98 1 3 C-0.375 4.5 -0.375 4.5 -2 6 C-2.66 6 -3.32 6 -4 6 C-3.6875 4.125 -3.6875 4.125 -3 2 C-2.01 1.34 -1.02 0.68 0 0 Z " fill="#DBDBDB" transform="translate(201,287)"/>
</svg>
